# xmcd CD database file
# Copyright (C) 1993-1998 Ti Kan
#
# Track frame offsets:
#	150
#	13910
#	25445
#	40297
#	50105
#	66557
#	79697
#	93355
#	104350
#	122105
#	140657
#	165877
#	186437
#	213155
#	224280
#	236912
#	265345
#	279622
#	296730
#
# Disc length: 4218 seconds
#
# Revision: 2
# Processed by: cddbd v1.4b41PL1 Copyright (c) Steve Scherf et al.
# Submitted via: NotifyCDPlayer(CDDB) 1.51.2
#
DISCID=2d107813
DTITLE=Muddy Waters - One More Mile - Disc 2
DYEAR=1900
DGENRE=
TTITLE0=Thirteen Highway
TTITLE1=Early in the Morning Blues
TTITLE2=One More Mile
TTITLE3=Come Back Baby (Let's Talk it Over)
TTITLE4=My Dog Can't Bark
TTITLE5=Roll Me Over Baby
TTITLE6=Trouble In Mind
TTITLE7=Trouble, Trouble
TTITLE8=My Pencil Won't Write No More
TTITLE9=Cold Up North
TTITLE10=Streamline Woman
TTITLE11=Rock Me
TTITLE12=Standin' Around Cryin'
TTITLE13=Hoochie Coochie Man
TTITLE14=Baby Please Don't Go
TTITLE15=You Can't Lose What You Ain't Never Had
TTITLE16=Feel Like Goin' Home
TTITLE17=Where's My Woman Been
TTITLE18=Rollin' and Tumblin'
EXTD=
EXTT0=
EXTT1=
EXTT2=
EXTT3=
EXTT4=
EXTT5=
EXTT6=
EXTT7=
EXTT8=
EXTT9=
EXTT10=
EXTT11=
EXTT12=
EXTT13=
EXTT14=
EXTT15=
EXTT16=
EXTT17=
EXTT18=
PLAYORDER=
